<svg xmlns="http://www.w3.org/2000/svg" xmlns:xlink="http://www.w3.org/1999/xlink" width="36.266" height="39.895" viewBox="0 0 36.266 39.895">
  <defs>
    <linearGradient id="linear-gradient" x1="0.609" y1="-0.279" x2="-0.169" y2="0.814" gradientUnits="objectBoundingBox">
      <stop offset="0" stop-color="#3c5891"/>
      <stop offset="0.505" stop-color="#0093cf"/>
      <stop offset="0.622" stop-color="#058eca"/>
      <stop offset="0.758" stop-color="#1281bc"/>
      <stop offset="0.905" stop-color="#296aa4"/>
      <stop offset="1" stop-color="#3c5891"/>
    </linearGradient>
  </defs>
  <g id="sticky-logo" transform="translate(-3 -11.98)">
    <g id="Group_18" data-name="Group 18" transform="translate(3 11.981)">
      <g id="Group_17" data-name="Group 17" transform="translate(0 2.916)">
        <path id="Path_36" data-name="Path 36" d="M89.786,70.9l-3.47,2.172a13.443,13.443,0,0,1,.068,1.366,11.773,11.773,0,0,1-5.942,10.212,23.562,23.562,0,0,1-9,8.4,11.532,11.532,0,0,1-1.338.582,18.22,18.22,0,0,0,2.223.134A18.026,18.026,0,0,0,90.466,75.849,17.171,17.171,0,0,0,89.786,70.9Z" transform="translate(-54.202 -57.933)" fill="url(#linear-gradient)"/>
        <path id="Path_37" data-name="Path 37" d="M11.249,47.511c2.449-.336,5.738-1.814,9.435-6.181-.159,0-.295.022-.454.022a12.067,12.067,0,0,1-6.3-1.769l6.282-8.309,1,1.277,3.629-6.987-7.983,1.142,1.179,1.657-9.457,3.9a12.215,12.215,0,0,1-.318-2.755A11.889,11.889,0,0,1,20.23,17.681a12.4,12.4,0,0,1,4.491.851l.59-.672h0a8.146,8.146,0,0,0-2.767-4.322v-.022a20.21,20.21,0,0,0-4.4-.515,17.9,17.9,0,0,0-6.895,34.511Z" transform="translate(0 -13)" fill="url(#linear-gradient)"/>
      </g>
      <path id="Path_39" data-name="Path 39" d="M105.725,21.057s6.214,9.54-3.425,25.777l1.814,1.142S114.978,34.494,108.56,20.9Z" transform="translate(-79.099 -16.215)" fill="url(#linear-gradient)"/>
      <path id="Path_38" data-name="Path 38" d="M36.85,2.381s10.569-4.77,12.633,7.7a26.994,26.994,0,0,1-5.715,20.671C35.852,40.811,29.253,37.833,28.3,37.273c0,0,4.105,4.86,11.136,1.3,6.282-3.18,10.682-9.54,12.746-16.1,1.95-6.159,2.744-14.109-1.542-19.529C50.617,2.941,45.65-3.33,36.85,2.381Z" transform="translate(-21.881 0.02)" fill="url(#linear-gradient)"/>
    </g>
  </g>
</svg>
